<svg width="120" height="120" xmlns="http://www.w3.org/2000/svg">
  <rect x="12" y="12" width="30" height="30" fill="#000000" opacity="0.3" rx="3" ry="3"/>
  <rect x="10" y="10" width="30" height="30" fill="#87b2e5" rx="3" ry="3"/>

  <rect x="47" y="12" width="30" height="30" fill="#000000" opacity="0.3" rx="3" ry="3"/>
  <rect x="45" y="10" width="30" height="30" fill="#377fd5" rx="3" ry="3"/>

  <rect x="82" y="12" width="30" height="30" fill="#000000" opacity="0.3" rx="3" ry="3"/>
  <rect x="80" y="10" width="30" height="30" fill="#87b2e5" rx="3" ry="3"/>

  <rect x="12" y="47" width="30" height="30" fill="#000000" opacity="0.3" rx="3" ry="3"/>
  <rect x="10" y="45" width="30" height="30" fill="#377fd5" rx="3" ry="3"/>

  <rect x="47" y="47" width="30" height="30" fill="#000000" opacity="0.3" rx="3" ry="3"/>
  <rect x="45" y="45" width="30" height="30" fill="#377fd5" rx="3" ry="3"/>

  <rect x="82" y="47" width="30" height="30" fill="#000000" opacity="0.3" rx="3" ry="3"/>
  <rect x="80" y="45" width="30" height="30" fill="#377fd5" rx="3" ry="3"/>

  <rect x="12" y="82" width="30" height="30" fill="#000000" opacity="0.3" rx="3" ry="3"/>
  <rect x="10" y="80" width="30" height="30" fill="#87b2e5" rx="3" ry="3"/>

  <rect x="47" y="82" width="30" height="30" fill="#000000" opacity="0.3" rx="3" ry="3"/>
  <rect x="45" y="80" width="30" height="30" fill="#377fd5" rx="3" ry="3"/>

  <rect x="82" y="82" width="30" height="30" fill="#000000" opacity="0.3" rx="3" ry="3"/>
  <rect x="80" y="80" width="30" height="30" fill="#87b2e5" rx="3" ry="3"/>
</svg>